<svg version="1.1" x="0px" y="0px" width="372" height="368" xmlns="http://www.w3.org/2000/svg" xmlns:xlink="http://www.w3.org/1999/xlink" xmlns:a="http://ns.adobe.com/AdobeSVGViewerExtensions/3.0/" xml:space="preserve"><g transform="translate(20.34752299178 20.476828479912) scale(2.6098513777008 2.6098513777008) rotate(0 63.471996307373 62.579498291016)"><linearGradient id="SVGID_1" x1="0%" y1="0%" x2="100%" y2="0%" gradientTransform="rotate(90)"><stop offset="0%" stop-color="#d8d8d8" stop-opacity="1"></stop><stop offset="100%" stop-color="#ffffff" stop-opacity="1"></stop></linearGradient><path fill-rule="evenodd" clip-rule="evenodd" d="M126.944 60.23v6.579c-.026.182-.067.363-.077.545-.022.439-.013.879-.048 1.314a63.273 63.273 0 01-.815 6.283c-.477 2.57-1.086 5.109-1.99 7.568-2.12 5.768-4.788 11.258-8.252 16.346-7.24 10.633-16.872 18.16-29.089 22.303-1.581.537-3.205.951-4.814 1.408-.167.049-.383.059-.537-.008-.254-.107-.475-.291-.772-.484l.943-.426c-.264 0-.504.061-.729.157-.279.12-.517.097-.792-.044-5.703-2.922-11.076-6.35-16.01-10.449-4.93-4.096-9.289-8.717-12.893-14.031-2.105-3.105-3.935-6.361-5.224-9.898-.021-.055-.06-.102-.1-.17-.02.051-.039.076-.037.098.157 1.842.454 3.663.854 5.469.863 3.908 2.145 7.68 3.679 11.369 2.996 7.207 6.743 14.01 11.046 20.514.102.152.174.324.26.486h-1.785c-.605-.055-1.211-.131-1.816-.166a65.647 65.647 0 01-9.854-1.32c-6.182-1.309-12.042-3.473-17.538-6.6-2.563-1.457-4.999-3.102-7.243-5.021-.383-.328-.674-.699-.814-1.176-.242-.824-.506-1.646-.689-2.484-.551-2.525-.902-5.084-1.148-7.654-.305-3.193-.561-6.393-.84-9.588-.008-.1-.032-.197-.066-.389-.205.291-.363.502-.506.721-.797 1.23-1.367 2.568-1.857 3.941-.94 2.627-1.574 5.338-2.07 8.08l-.211 1.176c-.115-.086-.184-.123-.236-.176-.519-.543-1.061-1.066-1.545-1.639-2.016-2.383-3.762-4.965-5.475-7.568a.8.8 0 01-.128-.574c.161-1.273.3-2.549.479-3.82a113.76 113.76 0 012.134-11.148c1.75-7.152 4.172-14.063 7.437-20.668 1.959-3.965 4.16-7.783 6.86-11.3.046-.06.081-.126.161-.253-.227.063-.391.1-.551.15-3.183.996-5.996 2.652-8.543 4.786-2.83 2.374-5.181 5.172-7.225 8.234C5.05 65.843 2.523 71.411.669 77.294l-.124.396a1.082 1.082 0 01-.149-.482c-.076-.92-.141-1.842-.225-2.76-.038-.418-.112-.834-.171-1.25v-3.945c.056-.371.125-.738.166-1.109.162-1.51.268-3.025.484-4.526.653-4.538 1.988-8.875 3.926-13.029 2.602-5.578 6.134-10.511 10.438-14.887 7.726-7.854 16.839-13.597 27.048-17.655.117-.047.231-.103.42-.187-.23-.087-.373-.145-.518-.195-2.045-.701-4.158-1.026-6.311-1.11-2.576-.102-5.129.139-7.662.604-4.516.831-8.845 2.246-13.02 4.147-.09.041-.188.061-.361.115.141-.182.223-.294.313-.401 4.517-5.354 10.037-9.286 16.608-11.732 5.16-1.922 10.515-2.77 15.999-2.883 3.656-.075 7.291.206 10.902.763 4.151.64 8.225 1.608 12.192 3.002.087.03.182.04.273.059-3.286-3.327-7.142-5.597-11.731-6.571a.476.476 0 01.226-.087c1.119-.135 2.235-.299 3.356-.393 2.305-.195 4.599-.094 6.866.395 3.108.667 5.833 2.047 8.074 4.327 1.865 1.898 3.16 4.151 4.063 6.638 1.241 3.424 1.731 6.973 1.694 10.604-.003.344 0 .688 0 1.079.229.138.477.303.734.445a48.668 48.668 0 005.219 2.459 15.593 15.593 0 015.793 4.061c2.361 2.619 3.927 5.673 4.878 9.053.25.889.632 1.696 1.186 2.43.59.78 1.284 1.455 2.045 2.063 2.075 1.655 4.406 2.853 6.854 3.848a18.795 18.795 0 014.459 2.571c.671.52 1.278 1.106 1.769 1.804.309.439.58.908.658 1.44.11.759.156 1.528.005 2.29-.375 1.898-1.329 3.494-2.585 4.931-.017.02-.05.024-.063.03-.353-.48-.685-.972-1.057-1.432-.385-.475-.801-.922-1.214-1.372a11.585 11.585 0 00-1.249-1.207c.025.172.08.316.15.453.345.666.704 1.326 1.038 1.999.258.517.519 1.036.72 1.576.31.829.384 1.711.082 2.536-.549 1.493-1.583 2.547-3.161 2.952-.597.153-1.223.19-1.885.288-.189 1.074-.793 1.971-1.6 2.744-1.04.998-2.27 1.713-3.57 2.309-.023.01-.058-.008-.124-.02.734-.779 1.333-1.627 1.64-2.645.311-1.025.312-2.041-.137-3.104-1.209 1.664-2.844 2.635-4.691 3.504.381-.496.713-.885.995-1.309.681-1.021.994-2.148.87-3.385-.025-.242-.101-.406-.331-.514-.326-.15-.639-.332-.956-.5-1.139-.604-2.222-1.287-3.153-2.188a1.694 1.694 0 00-.213-.184c-2.531-1.717-5.172-2.112-7.966-.657-1.086.565-1.975 1.367-2.775 2.284-1.565 1.796-2.893 3.735-3.71 5.993-.626 1.725-.847 3.486-.486 5.307.081.409.272.725.567.998.475.439 1.019.775 1.601 1.055 1.195.574 2.467.9 3.767 1.115 2.859.471 5.735.436 8.618.236.591-.039 1.045-.266 1.459-.642.162-.147.322-.3.465-.466.658-.742 1.056-1.619 1.314-2.566.028-.105.074-.203.111-.305.268 1.338.321 2.66.141 4.033.473.016.893.025 1.311.047.396.02.566.178.62.563.015.107.006.219.012.328.031.791-.133 1.557-.315 2.318-.62 2.588-1.943 4.691-4.218 6.148-.604.385-1.227.712-1.938.789-.62.068-1.25.104-1.872.078-1.794-.074-3.528-.496-5.244-.992-.239-.07-.486-.143-.731-.15-1.282-.049-2.566-.121-3.849-.098-1.46.029-2.897.26-4.286.738-.938.324-1.827.752-2.564 1.428-.331.303-.611.658-.938 1.01-.022-.16-.041-.311-.067-.459-.123-.693-.209-1.395-.381-2.074-.536-2.119-1.425-4.107-2.413-6.047-2.872-5.623-6.382-10.842-10.183-15.867-1.493-1.973-2.803-4.039-3.64-6.375-.708-1.979-1.121-4.007-.892-6.125.023-.218.069-.435.084-.651.127-2.051.164-4.1-.085-6.144-.118-.965-.286-1.92-.652-2.828-.088-.22-.21-.425-.343-.687-.094.133-.14.193-.179.256-2.28 3.799-4.171 7.775-5.468 12.02-1.406 4.597-2.033 9.285-1.637 14.091a32.57 32.57 0 002.452 10.033c2.03 4.82 4.976 8.996 8.849 12.516.189.172.391.334.585.5l.085-.061c-1.994-3.328-3.441-6.869-4.26-10.658-.822-3.803-1.058-7.629-.479-11.539.082.072.111.088.125.113.038.068.07.139.102.211 2.879 6.51 6.639 12.482 11.06 18.047 4.448 5.6 9.445 10.662 14.89 15.291 3.51 2.984 7.167 5.773 11.045 8.268.183.117.37.227.558.342.165-.107.31-.197.45-.295 9.204-6.316 16.014-14.629 20.619-24.77 1.084-2.385 1.904-4.859 2.664-7.364 1.475-4.854 2.505-9.784 2.892-14.849.244-3.191.246-6.379.003-9.572a58.487 58.487 0 00-1.538-9.678c-1.779-7.177-4.618-13.872-8.975-19.898-4.037-5.583-8.651-10.604-14.167-14.749C84.867 4.811 71.481.487 56.619.744c-.246.003-.493 0-.844 0 .142-.05.182-.073.225-.079 2.188-.298 4.381-.539 6.59-.593.154-.005.306-.047.46-.072h4.229c.152.025.304.068.457.072 2.271.063 4.524.312 6.771.66a58.15 58.15 0 0114.032 4.024c9.28 3.972 17.173 9.856 23.874 17.374 1.249 1.403 2.471 2.837 3.489 4.42a70.702 70.702 0 016.29 12.209c2.688 6.786 4.355 13.801 4.68 21.112.004.123.046.241.072.359zM40.637 47.753c-.085.075-.129.12-.178.156-1.506 1.108-2.876 2.369-4.145 3.739-6.238 6.736-9.63 14.696-10.168 23.856-.26 4.422.229 8.781 1.252 13.088 1.348 5.67 3.55 11.008 6.271 16.143.051.098.121.184.242.361-.043-.184-.059-.258-.078-.332-1.133-4.314-1.771-8.705-2.047-13.152a68.22 68.22 0 01.137-10.416c.292-3.23.813-6.424 1.613-9.568 2.756-10.818 8.363-19.854 16.9-27.062.115-.099.225-.204.352-.32-.135-.155-.244-.286-.357-.413a13.962 13.962 0 01-1.715-2.403c-.375-.674-.676-1.377-.843-2.132-.374-1.699.104-3.099 1.505-4.144.41-.307.869-.558 1.33-.783.934-.454 1.935-.714 2.948-.919 1.926-.387 3.876-.513 5.835-.562.158-.004.329.039.52-.075-.191-.104-.34-.191-.493-.269a35.91 35.91 0 00-6.185-2.45c-2.617-.754-5.272-1.229-8.014-.969-1.738.164-3.376.636-4.874 1.556-.38.232-.7.521-.971.872a8.944 8.944 0 00-1.508 3.002c-.634 2.177-.55 4.362-.049 6.547.499 2.184 1.382 4.217 2.463 6.17.084.148.161.3.257.479zm49.402-8.438c0 .41.011.718-.003 1.024-.016.313.066.638-.064.966-.101-.057-.169-.093-.234-.133a30.803 30.803 0 00-8.451-3.535c-2.226-.565-4.486-.849-6.786-.789-.351.009-.701.047-1.155.077.215.176.345.281.473.389 1.19.99 2.393 1.968 3.565 2.979.411.356.762.785 1.125 1.195.126.144.205.329.316.512-3.143 1.338-5.702 3.301-7.547 6.141a.81.81 0 00.311-.088 43.515 43.515 0 016.06-2.258c4.084-1.189 8.232-1.885 12.506-1.538.214.017.434.064.63.146 1.213.509 2.418 1.029 3.624 1.549.104.044.198.107.338.187-1.492.865-2.71 1.916-3.361 3.506 2.154-1.506 4.57-2.226 7.204-2.455-.093-.125-.139-.203-.2-.267-1.92-2.042-3.859-4.066-5.961-5.925-.515-.454-1.067-.866-1.62-1.278-.205-.151-.455-.241-.77-.405zm-.63 78.766a3.597 3.597 0 00-.034-.063l-1.923.961.044.09a428.45 428.45 0 001.66-.834c.089-.045.168-.104.253-.154zm-3.156 1.478c.009.018.017.033.024.05.051-.019.103-.036.153-.06.043-.02.085-.043.127-.066a.205.205 0 00-.178.006c-.042.019-.083.047-.126.07z" fill="#ffffff"></path><linearGradient id="SVGID_2" x1="0%" y1="0%" x2="100%" y2="0%" gradientTransform="rotate(90)"><stop offset="0%" stop-color="#f07a7f" stop-opacity="1"></stop><stop offset="100%" stop-color="#6e1115" stop-opacity="1"></stop></linearGradient><path fill-rule="evenodd" clip-rule="evenodd" d="M80.1 39.505c.5.083 1.007.144 1.502.26 1.564.37 3.131.735 4.684 1.151.542.146 1.057.412 1.566.66.264.129.486.34.767.54-.267.333-.568.479-.875.612-.917.4-1.879.396-2.85.296-.673-.067-1.28-.312-1.86-.65-1.193-.697-2.2-1.592-2.98-2.729l.046-.14z" fill="#ffffff"></path></g>
</svg>